<?xml version="1.0" standalone="no"?>
<!DOCTYPE svg PUBLIC "-//W3C//DTD SVG 20010904//EN"
 "http://www.w3.org/TR/2001/REC-SVG-20010904/DTD/svg10.dtd">
<svg version="1.0" xmlns="http://www.w3.org/2000/svg"
 width="712.000000pt" height="768.000000pt" viewBox="0 0 712.000000 768.000000"
 preserveAspectRatio="xMidYMid meet">

<g transform="translate(0.000000,768.000000) scale(0.100000,-0.100000)"
fill="#000000" stroke="none">
<path d="M2914 7611 c-28 -44 -29 -25 11 -221 8 -36 19 -94 25 -130 6 -36 18
-98 26 -137 8 -40 20 -106 28 -145 8 -40 20 -102 26 -138 7 -36 18 -99 26
-140 47 -247 48 -253 28 -292 l-17 -33 -13 30 c-7 17 -13 38 -14 49 0 10 -4
35 -10 55 -8 31 -50 207 -80 336 -34 146 -51 221 -70 300 -11 50 -26 113 -32
140 -6 28 -17 74 -25 103 -17 61 -23 59 -74 -15 l-30 -43 21 -83 c12 -45 31
-116 42 -157 11 -41 23 -91 28 -110 4 -19 18 -73 30 -118 l23 -84 -26 -25
c-29 -30 -43 -25 -53 20 -3 17 -17 66 -30 107 -13 41 -29 93 -36 115 -32 110
-67 210 -75 212 -4 2 -23 -19 -41 -46 l-33 -48 70 -213 c39 -117 68 -216 65
-221 -3 -5 -18 -9 -34 -9 -32 0 -26 -12 -117 230 -30 80 -60 159 -67 175 -8
17 -17 39 -20 51 -5 16 -25 26 -78 43 -39 11 -73 19 -75 17 -2 -2 16 -52 41
-112 24 -60 56 -138 71 -174 14 -36 30 -74 35 -85 22 -48 60 -149 57 -152 -2
-1 -17 -6 -35 -9 -29 -6 -32 -4 -60 52 -16 33 -59 124 -95 204 -36 80 -85 185
-109 234 l-44 88 -74 24 c-41 13 -76 21 -79 18 -3 -3 68 -151 157 -330 89
-178 162 -328 162 -332 0 -9 -44 -32 -60 -32 -9 0 -140 213 -140 228 0 4 -36
70 -80 146 -44 76 -80 141 -80 145 -1 15 -68 113 -73 105 -2 -5 -14 -40 -26
-77 l-21 -68 116 -197 c64 -108 128 -217 141 -242 14 -25 31 -51 36 -59 9 -10
6 -17 -8 -27 -35 -26 -52 -16 -98 54 -24 37 -83 128 -132 202 -97 149 -101
151 -125 50 -13 -56 -13 -56 81 -190 138 -197 134 -188 114 -210 -10 -11 -24
-20 -31 -20 -7 0 -46 44 -85 98 -116 156 -123 162 -190 162 -32 0 -61 -5 -64
-10 -7 -11 53 -97 107 -156 31 -33 31 -70 1 -96 -13 -10 -20 -6 -47 27 -17 22
-53 65 -81 95 -27 31 -67 75 -87 98 -31 36 -42 42 -75 42 -51 0 -113 -11 -113
-20 0 -4 46 -57 103 -119 56 -62 124 -137 152 -167 l49 -56 -24 -19 c-14 -10
-32 -19 -40 -19 -8 0 -102 88 -209 195 -191 192 -194 195 -236 195 -52 0 -70
-18 -61 -62 5 -24 49 -72 184 -204 155 -150 176 -174 166 -191 -6 -10 -19 -19
-28 -21 -16 -3 -129 84 -238 185 -26 24 -52 43 -58 43 -6 0 -10 -32 -10 -82
l0 -83 62 -50 c101 -82 138 -117 138 -130 0 -14 -32 -45 -46 -45 -5 0 -36 20
-69 45 -33 25 -66 45 -72 45 -9 0 -13 -20 -13 -69 0 -68 0 -70 35 -91 40 -25
41 -27 19 -58 -20 -29 -30 -28 -94 14 -62 40 -85 40 -166 4 -32 -13 -44 -24
-38 -30 6 -6 60 -41 120 -79 106 -66 109 -69 106 -102 -1 -18 -4 -35 -6 -37
-5 -4 -96 41 -146 73 -19 12 -77 44 -128 70 l-92 48 -38 -16 c-20 -9 -54 -21
-75 -28 -20 -7 -36 -17 -34 -22 1 -4 99 -58 218 -120 119 -62 226 -119 239
-128 23 -15 23 -15 -24 -33 l-47 -18 -207 96 c-115 53 -214 96 -220 96 -15 0
-15 -4 3 -64 17 -55 40 -96 55 -96 5 0 61 -23 123 -51 114 -51 147 -79 147
-124 0 -22 -27 -18 -143 25 -49 17 -91 29 -94 26 -7 -7 36 -126 53 -147 8 -8
45 -26 84 -38 38 -13 70 -26 70 -30 0 -4 -28 -13 -61 -20 -43 -8 -78 -24 -115
-52 -30 -22 -54 -41 -54 -43 0 -5 108 -40 152 -50 15 -3 38 -10 52 -16 23 -8
24 -12 14 -40 -10 -30 -12 -31 -52 -25 -22 4 -87 18 -143 31 -57 13 -111 24
-120 24 -19 0 -133 -77 -133 -89 0 -7 49 -20 125 -35 195 -38 265 -56 265 -70
-1 -33 -14 -56 -29 -52 -9 3 -63 12 -121 21 -58 9 -163 25 -233 35 -113 18
-131 18 -156 6 -52 -27 -57 -42 -28 -84 l25 -38 103 -13 c57 -7 145 -19 194
-26 50 -8 118 -17 153 -21 70 -7 92 -22 92 -65 0 -34 -7 -35 -130 -19 -41 6
-128 13 -193 16 -134 7 -130 13 -63 -73 46 -60 41 -59 246 -68 173 -7 195 -12
209 -43 9 -19 9 -27 0 -33 -7 -4 -78 -5 -159 -2 -81 3 -155 1 -164 -4 -14 -8
-11 -16 21 -61 l38 -51 67 -1 c65 0 66 0 77 -32 15 -43 5 -48 -100 -48 l-86 0
-42 -60 c-22 -33 -41 -65 -41 -70 0 -5 64 -6 150 -3 113 5 153 3 165 -7 16
-14 20 -46 6 -54 -9 -6 -122 -20 -278 -36 -134 -14 -135 -14 -181 -85 -23 -35
-42 -66 -42 -69 0 -10 69 -7 159 8 149 25 224 36 282 42 l56 5 7 -32 c7 -37 0
-47 -35 -54 -37 -7 -126 -25 -204 -41 -111 -22 -224 -44 -230 -44 -3 0 -5 -6
-5 -13 0 -7 27 -32 61 -56 49 -34 66 -41 87 -36 15 4 36 9 47 11 11 2 63 13
115 25 52 11 115 25 140 30 25 5 53 12 62 15 20 6 56 -42 42 -56 -8 -7 -106
-36 -239 -70 -16 -4 -43 -13 -60 -20 l-30 -12 40 -34 c68 -57 82 -60 182 -29
48 15 98 31 111 36 38 15 70 11 82 -12 7 -11 9 -26 7 -33 -3 -6 -48 -27 -100
-45 l-96 -33 -21 -65 c-12 -36 -19 -68 -15 -71 3 -3 60 16 128 41 137 52 157
56 157 28 0 -11 3 -26 6 -35 6 -16 -16 -28 -217 -111 l-115 -48 -23 -74 c-13
-41 -21 -77 -17 -80 6 -7 67 19 226 95 109 52 269 122 271 119 8 -13 5 -78 -4
-85 -7 -5 -130 -69 -275 -143 -239 -122 -265 -137 -278 -168 -22 -54 -18 -66
27 -81 46 -15 31 -22 339 150 287 161 288 161 313 155 13 -4 40 0 60 9 47 19
58 3 16 -23 -23 -14 -37 -17 -50 -10 -29 15 -38 11 -36 -17 2 -24 -17 -38
-225 -163 -125 -75 -228 -142 -228 -148 0 -7 12 -15 28 -19 15 -3 40 -10 56
-15 56 -18 80 -10 191 64 228 149 278 178 285 170 5 -4 12 -20 15 -35 6 -23 2
-30 -32 -52 -21 -14 -54 -37 -73 -51 -19 -14 -53 -37 -75 -51 -22 -15 -60 -42
-83 -62 l-44 -35 53 -18 c29 -11 62 -19 72 -19 10 0 44 19 75 43 123 94 156
117 162 117 6 0 50 -55 50 -64 0 -3 -30 -29 -67 -58 -38 -29 -103 -82 -146
-117 l-77 -64 0 -62 c0 -34 3 -64 6 -68 7 -7 86 56 253 202 57 50 106 91 110
91 3 -1 17 -10 31 -21 l25 -21 -40 -36 c-22 -19 -115 -105 -207 -191 -167
-155 -168 -156 -168 -199 0 -37 -6 -48 -40 -81 -57 -54 -53 -79 25 -204 132
-208 243 -346 444 -551 164 -167 165 -169 106 -136 -60 33 -346 217 -355 229
-3 3 -23 19 -45 36 -99 73 -231 189 -363 319 -165 162 -272 289 -444 527 -38
52 -46 51 -29 -5 6 -17 17 -71 26 -121 20 -109 51 -244 65 -281 9 -23 8 -25
-7 -19 -10 4 -64 22 -120 40 -55 18 -112 39 -125 46 -33 18 -105 75 -165 133
-29 28 -53 46 -53 40 0 -12 98 -156 169 -249 255 -332 587 -651 916 -881 250
-174 653 -394 840 -457 17 -5 35 -13 40 -17 39 -28 510 -169 650 -194 15 -3
51 -10 79 -15 183 -36 315 -53 356 -45 41 9 47 38 25 134 l-18 78 29 87 c39
118 35 124 -114 186 -138 58 -299 139 -457 232 -129 76 -305 195 -305 208 0 4
24 -2 52 -13 52 -20 311 -100 378 -118 114 -29 259 -59 315 -64 22 -2 57 -7
78 -11 21 -4 100 -12 175 -19 l137 -11 3 -250 2 -250 -28 -16 c-51 -29 -49
-128 3 -146 13 -4 34 -24 47 -43 38 -57 82 -80 150 -80 77 0 123 22 161 77 17
24 35 43 39 43 19 0 58 51 58 75 0 37 -25 81 -50 88 -19 5 -20 12 -20 255 l0
250 23 6 c12 3 45 6 73 6 28 0 73 4 100 9 27 5 74 12 104 16 74 8 193 32 385
79 71 18 267 81 340 111 17 7 43 17 59 24 16 6 30 10 33 8 6 -6 -72 -67 -172
-133 -182 -122 -245 -158 -502 -284 -168 -83 -182 -92 -193 -124 -9 -28 -7
-44 10 -95 15 -45 20 -86 20 -164 0 -97 2 -105 24 -126 l25 -23 98 16 c90 15
167 30 218 41 351 76 597 159 955 323 32 15 172 89 265 142 294 165 581 386
850 655 187 187 279 290 407 460 86 114 188 268 188 284 0 6 -19 -10 -42 -35
-56 -61 -128 -108 -246 -159 -53 -23 -120 -54 -149 -68 -29 -15 -55 -27 -57
-27 -3 0 2 21 10 48 25 79 40 142 59 247 15 86 26 128 52 193 3 6 0 12 -6 12
-6 0 -11 -5 -11 -10 0 -10 -52 -86 -144 -210 -204 -276 -457 -530 -756 -759
-62 -48 -277 -190 -298 -198 -9 -4 8 20 38 53 231 251 377 445 499 662 72 130
65 175 -35 232 -29 17 -73 54 -96 82 -24 28 -57 65 -74 83 -23 26 -28 38 -21
50 8 15 14 12 51 -22 55 -53 152 -133 160 -133 3 0 6 37 6 83 l0 83 -71 59
c-39 33 -96 80 -127 105 -58 47 -72 66 -50 68 7 0 29 4 49 7 32 6 41 3 75 -27
50 -44 99 -78 113 -78 7 0 11 26 11 70 0 59 -3 72 -20 82 -28 18 -25 25 20 48
l40 20 38 -24 39 -24 61 21 c34 12 62 26 62 32 0 5 -25 25 -56 43 -59 36 -58
33 -16 84 14 16 20 15 91 -24 42 -22 84 -47 94 -54 16 -10 33 -7 100 15 45 15
82 31 82 35 0 4 -63 41 -140 82 -77 42 -146 81 -153 88 -9 9 -10 19 -1 44 6
18 13 32 15 32 3 0 80 -36 171 -80 91 -44 168 -80 171 -80 8 0 -5 52 -28 115
l-22 60 -107 46 -106 47 1 37 c1 20 6 41 11 46 5 5 35 -1 76 -17 38 -15 70
-24 73 -21 3 2 -6 35 -19 73 -23 67 -25 69 -75 89 -39 15 -52 25 -52 40 1 26
21 52 41 52 18 0 95 51 122 81 21 23 18 26 -40 41 -36 10 -43 16 -43 36 0 27
-17 34 -26 10 -7 -16 -34 -21 -34 -6 0 17 31 41 53 41 12 0 39 -5 61 -11 127
-35 135 -35 199 11 31 22 57 45 57 50 0 10 -36 20 -140 40 -84 17 -91 22 -77
60 12 33 21 35 94 20 100 -20 219 -40 233 -40 8 0 30 13 49 29 l34 28 -23 34
c-13 19 -28 37 -34 41 -10 7 -78 18 -139 23 -21 2 -70 9 -108 15 l-69 12 0 34
c0 19 6 37 13 39 6 3 55 -1 107 -9 52 -7 99 -11 103 -9 12 7 3 26 -39 82 l-37
50 -73 6 c-77 8 -84 13 -84 73 0 18 6 22 29 22 17 0 32 4 35 9 6 10 -73 121
-86 121 -8 0 -5 22 8 72 3 10 17 18 37 20 26 2 39 14 75 65 24 35 41 67 38 72
-3 4 -36 6 -74 3 l-68 -4 -11 36 c-9 28 -9 38 0 41 25 8 157 25 196 25 37 0
42 3 80 61 49 74 52 93 14 85 -50 -11 -296 -44 -330 -46 -17 0 -17 64 0 78 7
6 56 19 108 28 52 9 96 17 99 19 3 2 26 6 50 10 60 8 80 15 80 25 0 16 -108
90 -131 90 -12 0 -62 -9 -111 -21 -52 -12 -94 -17 -99 -12 -5 5 -11 23 -15 40
-6 31 -5 32 47 47 29 9 59 16 66 16 26 0 12 17 -53 64 l-66 47 -71 -21 c-122
-37 -114 -36 -98 -14 8 10 30 33 48 49 25 24 37 48 52 105 11 41 18 77 15 79
-4 4 -55 -11 -121 -36 -9 -4 -13 8 -13 41 0 45 0 46 53 70 28 13 69 31 90 40
20 8 37 20 37 25 0 18 0 19 15 62 17 47 19 79 6 79 -5 0 -56 -22 -114 -50 -58
-27 -108 -50 -111 -50 -7 0 -36 56 -36 70 0 5 70 45 155 87 145 73 155 80 161
110 9 46 3 55 -46 69 -42 13 -46 12 -99 -20 -31 -18 -101 -57 -155 -86 l-99
-53 -19 23 c-10 12 -18 26 -18 31 0 10 63 53 141 97 90 51 90 55 7 85 l-72 26
-66 -44 c-37 -25 -73 -47 -81 -50 -17 -6 -89 21 -89 33 0 4 25 25 55 47 30 22
55 42 55 45 0 3 -29 14 -64 26 l-64 21 -38 -29 c-20 -15 -41 -28 -46 -28 -9 0
-44 68 -37 73 2 2 32 25 67 51 l62 47 0 80 c0 45 -4 79 -9 77 -5 -1 -82 -66
-171 -143 -224 -194 -231 -199 -269 -190 -17 4 -31 10 -30 13 0 4 57 59 127
122 69 63 176 164 239 224 l113 109 0 61 c0 34 -4 67 -9 75 -6 10 -89 -66
-316 -288 -169 -166 -310 -301 -315 -301 -4 0 -15 12 -25 26 -16 25 -16 26 26
72 136 149 271 295 402 430 81 84 147 158 147 163 0 5 -37 9 -83 9 l-82 0 -66
-72 c-36 -40 -94 -107 -129 -148 -35 -41 -68 -79 -74 -85 -6 -5 -47 -52 -91
-102 -43 -51 -80 -93 -82 -93 -1 0 -7 9 -12 19 -8 14 -6 25 10 45 13 16 19 35
16 47 -4 15 7 37 36 73 37 46 156 194 225 278 l23 28 -79 0 -79 0 -40 -52
c-173 -231 -196 -258 -208 -248 -25 21 -45 0 -45 -46 0 -24 -5 -44 -10 -44
-20 0 -60 -49 -60 -73 0 -13 -11 -34 -24 -46 l-24 -22 -16 22 c-9 13 -16 26
-16 30 0 7 22 39 130 195 50 73 72 104 158 228 17 26 32 52 32 59 0 12 -38
119 -45 125 -3 4 -94 -132 -261 -390 -38 -59 -72 -108 -75 -108 -4 0 -9 21
-11 47 -3 37 2 55 24 90 16 24 28 45 28 47 0 2 25 43 55 92 30 49 88 147 130
218 l76 129 -21 61 c-33 97 -32 97 -89 3 -28 -47 -51 -87 -51 -90 0 -3 -22
-44 -50 -92 -27 -48 -50 -88 -50 -90 0 -3 -23 -44 -52 -92 -45 -77 -52 -84
-59 -65 -5 13 -17 22 -29 22 -11 0 -20 3 -20 7 0 4 72 149 159 323 l159 315
-16 40 c-8 22 -16 41 -16 42 -1 1 -22 -5 -46 -13 -31 -10 -49 -23 -58 -42 -8
-15 -41 -85 -74 -157 -33 -71 -73 -157 -88 -190 -156 -334 -210 -449 -210
-451 0 -2 -12 -2 -27 -1 -43 3 -40 30 21 173 193 456 246 587 241 592 -2 3
-37 -6 -77 -19 l-72 -24 -53 -140 c-29 -77 -62 -162 -72 -190 -73 -190 -105
-271 -108 -274 -2 -3 -32 9 -61 25 -2 1 25 82 58 180 34 99 75 216 90 261 16
46 25 85 21 88 -5 2 -32 -4 -62 -15 -29 -11 -55 -20 -56 -20 -1 0 -16 -46 -33
-102 -17 -57 -49 -161 -71 -233 -22 -71 -52 -168 -66 -215 -58 -192 -75 -248
-97 -315 -13 -38 -29 -89 -36 -112 -7 -24 -16 -43 -20 -43 -17 0 -29 56 -20
90 5 19 16 62 25 95 9 33 20 76 25 95 5 19 15 58 23 85 16 52 85 307 119 435
36 136 46 174 66 242 l19 68 -43 60 c-25 33 -48 60 -53 60 -8 0 -21 -43 -41
-135 -5 -22 -16 -71 -25 -110 -9 -38 -21 -88 -25 -110 -5 -22 -23 -98 -40
-170 -17 -71 -35 -148 -40 -170 -14 -65 -40 -177 -50 -215 -5 -19 -12 -50 -15
-69 -11 -63 -21 -69 -43 -24 l-21 41 25 133 c13 74 27 141 29 150 3 9 8 32 10
50 2 19 16 93 30 164 14 72 30 157 36 190 6 33 16 89 24 125 64 313 62 276 14
340 -23 30 -43 57 -46 60 -9 9 -22 -25 -28 -75 -6 -55 -19 -136 -40 -265 -8
-47 -19 -114 -24 -150 -52 -336 -91 -559 -99 -574 -3 -5 -16 15 -29 44 -24 54
-24 54 -9 164 20 149 43 330 56 446 6 52 17 142 25 200 22 163 28 230 20 230
-14 0 -105 -72 -115 -90 -5 -10 -14 -78 -20 -151 -5 -74 -14 -170 -19 -214 -5
-44 -15 -146 -22 -227 -7 -81 -16 -145 -21 -142 -5 3 -22 33 -40 67 l-31 62 6
130 c4 72 10 185 13 253 5 81 4 122 -3 122 -6 0 -33 -18 -62 -41 l-51 -41 0
-93 c0 -52 -4 -97 -10 -100 -5 -3 -25 26 -44 64 -29 56 -46 76 -88 105 -29 19
-56 32 -59 28 -4 -4 -2 -66 3 -138 l9 -130 -32 -67 c-28 -61 -49 -86 -45 -54
0 6 -5 73 -12 147 -31 332 -29 323 -54 342 -40 32 -109 71 -114 65 -4 -3 1
-61 10 -129 38 -285 46 -346 50 -398 3 -30 10 -103 16 -161 11 -101 11 -108
-10 -149 -12 -23 -25 -38 -29 -34 -7 8 -28 121 -52 289 -6 39 -16 104 -24 145
-7 41 -19 111 -25 155 -6 44 -17 116 -25 160 -8 44 -19 112 -25 151 -10 60
-16 74 -40 93 -39 29 -46 27 -76 -18z m707 -816 c45 -88 154 -302 244 -475
272 -527 364 -710 358 -710 -3 0 -33 13 -67 29 -63 30 -224 81 -311 100 -49
10 -197 29 -265 34 l-35 2 -7 140 c-9 201 -14 1055 -6 1047 4 -4 44 -79 89
-167z m-697 -255 c25 -96 52 -202 60 -235 13 -47 14 -66 5 -87 -6 -16 -15 -28
-19 -28 -7 0 -50 133 -116 360 l-36 125 23 39 c28 48 25 56 83 -174z m-158
-25 c151 -441 154 -453 135 -484 -12 -18 -24 6 -89 179 -133 353 -131 347
-110 368 24 24 41 7 64 -63z m-920 -156 c31 -42 33 -49 23 -78 -6 -17 -15 -31
-19 -31 -5 0 -25 20 -44 44 -31 37 -36 50 -36 96 l0 53 21 -19 c11 -10 36 -40
55 -65z m783 43 c11 -21 49 -110 84 -198 36 -87 79 -192 95 -232 29 -70 32
-102 10 -102 -5 0 -30 44 -55 98 -130 278 -193 417 -193 426 0 9 29 46 36 46
2 0 12 -17 23 -38z m1708 -41 c-3 -14 -28 -84 -57 -156 -28 -71 -57 -143 -62
-160 -16 -44 -36 -80 -45 -80 -23 0 -9 74 41 220 79 230 70 213 101 207 23 -4
26 -9 22 -31z m160 13 c14 -31 16 -26 -76 -218 -39 -81 -71 -149 -71 -151 0
-1 -20 -46 -45 -100 -40 -85 -47 -96 -61 -84 -19 15 -14 47 17 116 12 26 32
71 44 98 13 28 44 100 70 160 96 227 98 230 122 179z m183 -61 c0 -2 -25 -47
-55 -99 -30 -53 -55 -97 -55 -99 0 -2 -24 -45 -53 -97 -30 -51 -67 -118 -84
-148 -113 -206 -114 -208 -128 -172 -4 11 14 57 53 132 33 63 103 201 157 305
53 105 102 195 107 202 8 10 15 9 34 -4 13 -8 24 -17 24 -20z m-2045 -283
c113 -226 134 -274 125 -290 -6 -11 -13 -20 -15 -20 -2 0 -21 30 -41 68 -20
37 -67 121 -104 187 -37 66 -87 157 -111 202 -43 80 -44 81 -25 102 11 12 23
21 27 21 5 0 69 -122 144 -270z m2523 146 c8 -19 8 -27 -3 -36 -8 -7 -12 -16
-9 -21 12 -21 -8 -28 -37 -14 -31 17 -31 19 5 68 24 33 30 34 44 3z m-2742
-58 c20 -35 47 -79 59 -98 28 -44 194 -325 216 -366 10 -18 14 -36 9 -44 -9
-14 -52 43 -151 197 -31 48 -91 141 -133 205 -42 65 -76 123 -76 131 0 14 19
37 31 37 4 0 24 -28 45 -62z m-158 -29 c15 -24 15 -24 -14 -33 -31 -9 -67 28
-47 47 14 14 49 6 61 -14z m2672 17 c0 -3 -55 -77 -122 -166 -68 -89 -139
-183 -158 -210 -19 -26 -52 -69 -73 -96 -21 -27 -54 -70 -74 -96 -20 -28 -43
-48 -54 -48 -25 0 -24 2 11 52 17 24 42 59 55 78 13 19 41 58 60 85 20 28 52
73 70 100 19 28 60 86 91 130 30 44 65 95 77 112 12 18 29 33 38 33 8 0 24 7
35 15 18 14 44 20 44 11z m-2870 -30 c0 -11 -19 -15 -25 -6 -3 5 1 10 9 10 9
0 16 -2 16 -4z m3021 -16 c21 -17 21 -19 6 -20 -10 0 -30 -12 -44 -26 -23 -23
-27 -24 -40 -11 -13 13 -12 19 8 46 27 36 38 38 70 11z m-402 -42 c-7 -12 -51
-81 -98 -153 -47 -71 -90 -137 -96 -146 -5 -9 -19 -29 -29 -45 -11 -16 -30
-46 -44 -66 -26 -40 -37 -46 -45 -25 -4 11 41 89 198 345 6 10 23 38 39 65 23
39 33 47 57 47 28 0 29 -2 18 -22z m-2310 -86 c282 -407 293 -424 272 -436 -7
-5 -134 155 -236 298 -16 22 -53 72 -82 110 -52 68 -60 86 -46 99 18 19 43 0
92 -71z m3381 28 c0 -31 -6 -43 -29 -59 -37 -26 -43 -26 -69 2 l-22 23 51 42
c28 23 55 39 60 36 5 -3 9 -23 9 -44z m-308 -42 l-32 -33 -21 21 -21 21 34 31
c33 32 33 32 53 12 19 -20 19 -20 -13 -52z m-212 42 c0 -5 -2 -10 -4 -10 -3 0
-8 5 -11 10 -3 6 -1 10 4 10 6 0 11 -4 11 -10z m-260 -24 c12 -23 10 -28 -26
-69 -22 -24 -81 -93 -133 -153 -153 -177 -218 -244 -235 -244 -9 0 -16 5 -16
12 0 10 116 159 240 308 25 30 67 81 94 113 26 31 51 57 55 57 4 0 13 -11 21
-24z m-2759 -35 c13 -17 120 -152 208 -260 126 -154 142 -181 111 -181 -15 0
-370 411 -370 428 0 10 21 32 31 32 4 0 13 -9 20 -19z m-341 -31 c0 -5 -5 -10
-11 -10 -5 0 -7 5 -4 10 3 6 8 10 11 10 2 0 4 -4 4 -10z m3467 -21 c18 -18
-82 -106 -129 -114 -34 -6 -54 -25 -27 -25 19 0 6 -15 -80 -91 -199 -175 -221
-192 -243 -182 -19 8 -7 22 118 133 76 69 177 162 224 207 83 81 113 96 137
72z m-227 -26 c2 -2 -79 -87 -180 -188 -178 -178 -216 -206 -235 -176 -3 5 75
93 172 195 168 175 179 184 208 179 16 -3 32 -8 35 -10z m-2846 -198 c86 -95
156 -176 156 -180 0 -3 -8 -5 -17 -5 -19 0 -333 307 -333 325 0 12 20 35 31
35 3 0 77 -79 163 -175z m3207 119 l24 -27 -45 7 c-54 8 -60 14 -36 32 26 19
29 18 57 -12z m-1803 -34 c328 -34 575 -138 826 -349 509 -428 655 -1155 351
-1754 -72 -142 -143 -241 -257 -357 -206 -210 -404 -324 -703 -403 -105 -28
-194 -38 -339 -38 -122 0 -312 21 -338 37 -4 3 -42 14 -83 25 -42 11 -84 23
-93 28 -9 5 -65 32 -124 60 -155 74 -277 160 -398 281 -212 212 -346 469 -405
775 -18 95 -21 416 -4 497 49 239 107 382 228 567 61 93 230 270 330 346 163
124 409 233 596 264 183 31 273 35 413 21z m-1526 -157 c103 -102 125 -129
109 -131 -13 -2 -52 24 -117 80 -177 151 -170 144 -155 162 7 9 18 16 24 16 6
0 68 -57 139 -127z m3166 85 c7 -7 12 -18 12 -25 0 -19 -251 -202 -277 -203
-56 0 -36 20 176 187 74 58 73 57 89 41z m-3367 -92 c30 -24 78 -64 108 -88
65 -51 73 -68 35 -68 -23 0 -84 41 -230 156 -25 20 -14 41 22 43 7 1 36 -19
65 -43z m3429 -80 c0 -6 -25 -27 -54 -47 -42 -27 -62 -35 -86 -31 -17 2 -30 8
-28 13 2 4 35 31 73 58 63 45 71 48 83 34 6 -9 12 -22 12 -27z m-3648 12 c-7
-7 -12 -8 -12 -2 0 14 12 26 19 19 2 -3 -1 -11 -7 -17z m144 -55 c35 -26 64
-50 64 -55 0 -16 -53 -8 -89 14 -62 37 -92 69 -79 85 14 18 27 12 104 -44z
m575 -120 c-5 -10 -24 -31 -41 -48 -74 -70 -202 -277 -260 -420 -18 -44 -36
-84 -40 -89 -9 -9 -55 3 -295 78 -93 30 -237 75 -320 100 -250 78 -459 146
-474 155 -15 10 37 23 164 41 44 6 114 18 155 25 41 7 109 18 150 25 41 6 111
17 155 25 44 8 116 19 160 25 44 6 114 18 155 25 84 16 218 38 330 54 41 6 86
13 100 15 62 9 71 7 61 -11z m3529 -345 c-85 -83 -325 -320 -533 -525 -209
-205 -383 -373 -389 -373 -5 0 -7 8 -4 18 32 110 1 473 -53 616 -5 12 -6 27
-3 33 4 5 102 42 217 81 116 40 336 115 490 168 154 52 294 99 310 104 17 4
41 12 55 18 76 32 60 6 -90 -140z m488 21 l-3 -42 -70 -18 c-86 -23 -97 -20
-88 23 3 18 7 35 9 37 4 5 124 38 142 40 9 1 12 -11 10 -40z m-257 -42 c-1
-12 -15 -9 -19 4 -3 6 1 10 8 8 6 -3 11 -8 11 -12z m29 -37 c0 -5 -5 -10 -11
-10 -5 0 -7 5 -4 10 3 6 8 10 11 10 2 0 4 -4 4 -10z m-4720 -561 c0 -5 -4 -9
-10 -9 -5 0 -10 7 -10 16 0 8 5 12 10 9 6 -3 10 -10 10 -16z m-706 -118 c10
-15 -34 -61 -59 -61 -24 0 -71 51 -58 64 10 9 111 7 117 -3z m844 -8 c3 -10
-15 -13 -67 -13 -57 0 -71 3 -71 15 0 13 12 15 67 13 42 -2 68 -8 71 -15z
m3772 -29 c0 -22 -3 -25 -22 -20 -13 3 -32 6 -42 6 -18 0 -18 1 -1 20 10 11
29 20 42 20 18 0 23 -5 23 -26z m-3650 -89 c16 -19 9 -21 -95 -32 -111 -10
-110 -11 -110 12 0 17 9 21 65 26 114 10 127 9 140 -6z m3644 -25 c19 -19 -7
-30 -62 -26 -31 3 -66 5 -77 6 -11 0 -27 5 -35 10 -13 9 -13 11 0 21 17 11
160 3 174 -11z m-3529 -84 c17 -12 14 -14 -31 -25 -27 -6 -60 -14 -74 -16 -14
-2 -45 -9 -70 -14 -25 -5 -64 -12 -88 -16 -41 -5 -43 -4 -40 17 2 19 12 24 48
31 25 4 79 13 120 21 100 18 113 18 135 2z m3405 -16 c96 -15 125 -24 128 -45
4 -16 -1 -17 -45 -11 -55 8 -189 34 -215 42 -10 3 -18 12 -18 21 0 17 -5 17
150 -7z m-3305 -80 c6 -10 -5 -17 -40 -23 -11 -2 -38 -9 -60 -15 -217 -60
-295 -74 -295 -52 0 5 24 16 53 23 92 25 151 39 181 43 16 2 43 8 60 13 17 6
42 12 56 14 14 2 28 5 32 6 4 0 10 -4 13 -9z m3170 -10 c17 -5 44 -12 60 -14
151 -26 275 -70 255 -90 -3 -3 -42 4 -85 15 -44 11 -87 22 -95 24 -8 2 -51 13
-95 25 -44 12 -84 23 -90 24 -29 6 -55 18 -55 27 0 10 50 5 105 -11z m-3077
-91 c-34 -22 -471 -160 -479 -152 -20 20 22 43 146 81 314 97 320 99 333 89
11 -8 11 -12 0 -18z m2956 11 c17 -5 92 -28 166 -51 74 -22 153 -46 175 -54
22 -7 62 -19 89 -27 35 -9 51 -20 57 -37 5 -13 7 -26 5 -28 -4 -5 -141 34
-160 45 -4 2 -81 29 -170 59 -161 54 -206 75 -206 93 0 12 6 12 44 0z m-2944
-109 c0 -14 -20 -26 -90 -54 -36 -14 -103 -42 -150 -62 -80 -35 -231 -95 -238
-95 -10 0 6 44 18 51 37 19 110 50 160 68 30 11 87 31 125 46 39 15 86 32 105
40 42 15 70 18 70 6z m3309 -147 c139 -53 155 -62 169 -91 9 -18 13 -35 10
-38 -3 -3 -30 5 -59 19 -30 13 -92 40 -139 59 -148 61 -345 148 -354 157 -5 5
-6 15 -3 23 5 12 26 7 114 -28 59 -23 177 -69 262 -101z m-3331 9 c-4 -24
-353 -203 -388 -200 -28 2 -33 25 -10 38 8 5 78 38 155 74 77 36 158 74 180
84 50 25 67 26 63 4z m178 -65 c67 -112 140 -201 245 -304 57 -55 117 -109
132 -120 l28 -20 -33 -49 c-19 -28 -74 -108 -123 -180 -161 -237 -193 -283
-345 -499 -142 -203 -174 -246 -183 -246 -5 0 -7 10 -4 23 4 12 9 42 12 67 3
25 13 88 21 140 8 52 19 127 25 165 6 39 17 106 24 150 17 98 40 244 55 345 6
41 17 111 25 155 7 44 18 112 23 150 24 161 47 285 53 285 4 0 25 -28 45 -62z
m2948 -7 c129 -61 153 -80 130 -104 -5 -4 -260 115 -270 127 -9 9 -14 47 -6
45 5 -2 71 -33 146 -68z m-3144 -71 c0 -29 -181 -134 -216 -126 -21 6 -24 10
-14 21 7 8 20 17 30 20 10 3 58 28 107 55 48 28 89 50 91 50 1 0 2 -9 2 -20z
m3193 -103 c20 -11 37 -26 37 -33 0 -26 -34 -23 -95 11 -73 41 -115 78 -115
100 0 13 14 9 68 -20 37 -21 84 -47 105 -58z m217 49 c81 -42 104 -66 83 -87
-6 -6 -43 7 -94 33 -71 37 -84 47 -87 71 -2 15 0 27 5 27 4 0 46 -20 93 -44z
m-3430 -95 c0 -23 -14 -41 -30 -41 -28 0 -35 19 -14 35 22 16 44 19 44 6z
m3150 -75 c0 -7 -6 -19 -14 -25 -18 -15 -53 14 -62 52 l-7 29 42 -21 c22 -12
41 -28 41 -35z m322 -42 c-7 -36 -21 -36 -81 0 -69 43 -75 49 -66 76 6 20 10
19 78 -18 56 -30 71 -43 69 -58z m-43 -144 c-1 -28 -14 -49 -25 -42 -10 7 -34
65 -34 84 0 5 14 1 30 -9 17 -9 30 -24 29 -33z m-948 -40 c31 -41 124 -167
208 -280 83 -113 167 -225 186 -250 124 -163 231 -315 224 -318 -10 -4 -1309
648 -1309 657 0 4 28 13 63 20 137 29 388 138 493 214 27 20 56 35 63 34 8 -1
40 -36 72 -77z m-953 -643 l2 -417 -70 0 -70 0 0 389 0 388 58 31 c31 17 62
30 67 28 6 -2 11 -153 13 -419z m258 315 c13 -8 20 -31 29 -87 3 -22 15 -92
27 -155 11 -63 22 -127 23 -143 2 -15 8 -48 13 -75 22 -100 22 -121 1 -133
-41 -21 -52 2 -64 131 -5 51 -27 217 -40 290 -15 91 -19 180 -8 180 4 0 13 -4
19 -8z m-486 -44 c0 -18 -6 -80 -15 -138 -18 -131 -34 -265 -41 -350 -3 -36
-8 -68 -10 -72 -8 -12 -28 -10 -47 5 -13 10 -15 19 -8 52 5 22 12 65 15 95 3
30 10 78 16 105 13 69 32 193 36 235 5 53 14 84 27 92 21 14 27 8 27 -24z
m683 -217 c26 -103 47 -194 47 -202 0 -21 -38 -55 -48 -43 -7 8 -22 72 -38
164 -3 14 -16 74 -29 135 -14 60 -25 120 -25 132 0 20 3 21 23 12 20 -9 29
-35 70 -198z m-813 170 c0 -7 -27 -148 -71 -373 -12 -61 -25 -70 -53 -39 -15
17 -16 24 -1 87 8 38 17 81 19 96 3 15 9 44 15 65 5 21 15 61 22 88 7 28 19
58 27 68 16 18 42 23 42 8z m966 -158 c15 -49 28 -91 30 -94 5 -9 -46 -42 -53
-36 -2 3 -8 20 -13 39 -5 18 -18 66 -29 105 -29 101 -29 107 8 88 25 -12 34
-29 57 -102z m-1135 28 c-6 -20 -20 -69 -31 -108 -12 -40 -24 -73 -28 -73 -22
1 -43 30 -38 52 4 13 12 41 18 63 20 75 31 96 57 110 32 16 37 6 22 -44z
m1262 -12 c26 -12 51 -54 42 -70 -4 -5 -17 -9 -30 -9 -24 0 -35 13 -55 64 -11
30 2 34 43 15z m-1437 -73 c-12 -29 -21 -36 -42 -36 -20 0 -25 4 -20 16 3 9 6
20 6 25 0 13 64 51 68 40 2 -5 -4 -25 -12 -45z m-1196 -1 l23 -24 -41 -48
c-22 -26 -66 -73 -96 -103 l-56 -54 -32 31 -32 32 94 96 c52 52 99 95 105 95
6 0 22 -11 35 -25z m2910 -115 c28 -56 30 -64 19 -100 -14 -46 -29 -52 -29
-12 0 52 -22 104 -61 147 -51 55 -51 71 1 45 31 -16 47 -34 70 -80z m-1911 34
c-5 -15 -20 -39 -33 -54 -13 -16 -28 -54 -35 -89 -13 -67 -27 -83 -48 -55 -26
35 -26 64 -2 116 17 37 36 59 69 79 56 35 62 36 49 3z m731 -169 c0 -91 -2
-105 -16 -105 -15 0 -16 9 -10 68 9 85 18 142 22 142 2 0 4 -47 4 -105z
m-1672 39 c12 -8 22 -21 22 -28 0 -7 -22 -36 -48 -66 l-48 -54 -27 20 c-14 10
-27 25 -27 32 0 16 81 112 95 112 6 0 21 -7 33 -16z m697 -14 c3 -5 1 -10 -4
-10 -6 0 -11 5 -11 10 0 6 2 10 4 10 3 0 8 -4 11 -10z m1864 -61 c15 -44 15
-47 -19 -64 -29 -15 -31 -15 -40 10 -14 38 -12 56 8 71 27 21 39 17 51 -17z
m-1378 -9 c22 -12 23 -19 9 -55 -9 -25 -11 -25 -40 -10 -34 18 -33 15 -20 49
10 28 21 31 51 16z m-1086 -137 c-7 -47 -22 -54 -49 -24 -17 19 -17 22 15 67
30 42 34 44 37 24 2 -13 1 -43 -3 -67z m2303 58 c10 -28 9 -30 -18 -36 -52
-11 -69 20 -27 48 31 22 34 21 45 -12z m-1057 -10 c19 -15 21 -22 12 -32 -17
-17 -63 -3 -63 20 0 35 17 39 51 12z m-371 -74 c0 -11 -39 16 -45 31 -3 8 4 6
20 -5 13 -10 25 -21 25 -26z m1653 -42 c9 -74 -4 -230 -22 -264 -9 -16 -16
-18 -43 -11 -18 5 -44 11 -58 13 -14 3 -68 14 -120 25 -52 12 -106 23 -120 26
-115 23 -164 37 -172 48 -4 7 -7 53 -6 103 l3 90 46 6 c26 4 91 10 145 14 55
3 126 10 159 14 33 5 87 8 120 7 l60 -1 8 -70z m1338 -37 c16 15 49 16 49 0 0
-18 -51 -68 -69 -68 -16 0 -131 130 -131 147 0 5 6 15 13 22 10 10 23 0 69
-51 45 -51 59 -61 69 -50z m-2651 86 c52 -2 139 -9 194 -14 54 -6 105 -10 112
-10 12 0 14 -19 12 -102 l-3 -102 -55 -13 c-30 -7 -70 -15 -88 -17 -18 -3 -36
-7 -41 -10 -6 -4 -40 -12 -176 -41 -11 -3 -41 -10 -66 -16 -59 -15 -72 -10
-88 37 -14 44 -27 263 -17 290 5 14 15 16 64 10 31 -4 100 -9 152 -12z m-1444
-21 c30 -22 35 -31 32 -62 -2 -26 -9 -39 -25 -46 -13 -5 -23 -15 -23 -23 0
-14 -42 -82 -51 -82 -4 0 -12 7 -19 15 -11 13 -10 22 6 50 24 45 11 56 -26 20
-28 -27 -60 -29 -60 -4 0 16 109 159 121 159 6 0 26 -12 45 -27z m414 2 c17
-9 30 -22 30 -30 0 -16 -48 -95 -58 -95 -2 0 -20 9 -39 21 -37 23 -38 21 16
96 19 27 15 26 51 8z m3531 -52 c46 -48 89 -107 89 -120 0 -6 -8 -14 -17 -18
-18 -7 -23 -2 -110 103 -29 35 -33 45 -23 57 18 21 22 20 61 -22z m-291 7 c0
-5 -13 -16 -29 -24 -26 -14 -30 -14 -45 3 -24 27 -20 31 29 31 25 0 45 -4 45
-10z m-1612 -50 c15 0 16 -16 2 -25 -5 -3 -10 -17 -10 -31 0 -28 -15 -32 -30
-6 -10 16 -10 16 -20 0 -15 -26 -30 -22 -30 6 0 14 -4 28 -10 31 -15 9 -12 25
5 25 8 0 20 9 27 20 12 19 13 19 33 0 12 -11 27 -20 33 -20z m-1915 -5 c20
-14 37 -32 37 -40 0 -18 -31 -20 -47 -4 -6 6 -16 8 -22 5 -16 -10 -13 -36 4
-42 17 -7 21 -44 4 -44 -6 0 -19 4 -29 10 -13 7 -21 5 -31 -6 -11 -13 -10 -19
9 -33 15 -11 21 -23 16 -34 -8 -22 -8 -22 -60 14 -27 18 -42 35 -37 42 26 45
106 157 112 157 3 0 23 -11 44 -25z m3747 0 c11 -13 10 -18 -6 -30 -12 -8 -23
-10 -28 -4 -14 13 -26 11 -26 -6 0 -10 15 -15 57 -17 52 -3 59 -6 72 -32 18
-38 2 -72 -41 -91 -41 -16 -71 -4 -66 28 2 18 9 22 36 19 24 -2 32 1 29 10 -2
7 -21 14 -43 14 -59 2 -61 3 -78 20 -21 20 -20 63 1 86 20 22 76 24 93 3z
m-403 -51 c4 -13 -64 -51 -74 -41 -8 9 47 58 61 53 6 -1 11 -7 13 -12z m-3199
-57 c26 -27 20 -58 -17 -92 -19 -17 -26 -17 -54 -7 -30 12 -34 11 -54 -15 -17
-21 -26 -25 -42 -17 -20 9 -18 13 35 96 55 88 56 88 82 74 15 -8 37 -25 50
-39z m928 26 c3 -16 10 -42 14 -60 6 -23 1 -56 -17 -120 -13 -48 -28 -91 -31
-95 -4 -4 -24 -2 -45 4 -43 13 -43 15 -2 143 12 39 28 89 35 113 15 48 37 55
46 15z m2557 -55 c74 -63 87 -82 68 -101 -8 -8 -18 -7 -35 3 -31 16 -53 2 -58
-38 -6 -54 -30 -27 -63 70 l-33 97 21 15 c12 8 23 15 25 15 2 1 35 -27 75 -61z
m-2726 20 c-3 -13 -17 -58 -32 -100 -23 -65 -32 -78 -50 -78 -11 0 -29 6 -39
13 -18 13 -18 15 1 67 15 39 31 61 64 86 53 39 63 41 56 12z m1792 5 c7 -14
71 -202 71 -210 0 -3 -64 -23 -74 -23 -11 0 -28 37 -43 92 -7 26 -5 137 3 150
9 14 33 9 43 -9z m237 -58 c14 -30 24 -62 22 -72 -2 -9 -19 -22 -39 -29 l-37
-12 -26 71 c-14 40 -26 75 -26 79 0 7 28 14 63 17 13 1 26 -15 43 -54z m218
39 c10 -26 7 -33 -23 -49 -27 -13 -31 -13 -45 1 -9 8 -16 19 -16 24 0 5 -3 15
-6 24 -5 13 2 16 39 16 32 0 47 -5 51 -16z m-2858 -40 c-3 -8 2 -18 12 -23 15
-8 12 -17 -23 -86 -46 -89 -68 -104 -113 -81 -57 30 -59 49 -14 135 37 71 42
76 70 74 17 -2 34 2 37 8 9 14 37 -10 31 -27z m2009 -15 c16 -16 -20 -10 -41
7 -18 14 -18 15 6 8 14 -3 29 -10 35 -15z m1163 9 c5 -7 13 -24 17 -38 4 -14
21 -41 38 -62 30 -37 31 -68 3 -68 -8 0 -23 11 -34 25 -34 43 -53 31 -31 -19
9 -20 9 -29 -1 -41 -17 -20 -21 -16 -67 62 -60 102 -61 108 -16 132 44 23 76
26 91 9z m-2808 -17 c0 -16 -20 -23 -46 -17 -36 9 -29 26 11 26 19 0 35 -4 35
-9z m797 3 c-3 -3 -12 -4 -19 -1 -8 3 -5 6 6 6 11 1 17 -2 13 -5z m233 -146
l0 -128 -38 0 c-21 0 -43 5 -48 10 -9 9 6 225 17 234 36 28 54 35 61 23 4 -6
8 -69 8 -139z m402 125 c13 -16 46 -228 37 -238 -2 -2 -21 -6 -41 -10 l-38 -7
0 136 c0 107 3 136 13 136 8 0 21 -8 29 -17z m422 -14 c6 -7 16 -69 11 -69
-11 0 -81 36 -87 45 -4 6 -8 17 -8 26 0 14 7 15 40 9 23 -4 42 -9 44 -11z
m-1219 -16 c-4 -16 -8 -29 -9 -30 -6 -7 -91 -41 -94 -39 -2 2 1 19 6 37 7 28
15 36 48 46 56 16 57 16 49 -14z m-890 -6 c48 -27 61 -75 25 -100 -11 -8 -18
-20 -15 -28 7 -19 -31 -79 -51 -79 -9 0 -34 10 -56 22 -33 19 -39 26 -34 48 6
30 75 160 84 160 4 0 25 -10 47 -23z m2910 -7 c10 -11 19 -29 20 -40 1 -11 11
-31 24 -44 41 -44 11 -106 -59 -120 -23 -5 -28 2 -63 72 -20 42 -37 85 -37 94
0 11 17 25 43 37 52 25 50 25 72 1z m-2786 -54 c8 -10 4 -29 -20 -82 l-31 -68
21 -14 c22 -15 28 -37 11 -47 -13 -8 -90 33 -90 48 0 21 78 177 88 177 5 0 15
-6 21 -14z m1769 -33 c34 -26 59 -71 45 -83 -4 -4 -24 -10 -44 -14 -43 -8 -46
-3 -56 81 -7 62 -7 62 55 16z m-818 0 c0 -16 -3 -45 -6 -65 -6 -35 -9 -38 -38
-38 -68 0 -72 41 -7 97 44 40 51 40 51 6z m-820 -32 c0 -9 -23 -69 -40 -106
-5 -11 -14 -33 -20 -48 -7 -19 -16 -27 -27 -25 -25 5 -27 30 -5 80 10 24 27
62 37 85 15 36 20 41 36 32 11 -5 19 -13 19 -18z m1890 -11 c-18 -11 -24 -6
-16 16 5 14 9 15 19 5 9 -9 9 -14 -3 -21z m487 5 c24 -17 53 -93 53 -141 0
-37 -14 -51 -58 -60 -40 -8 -59 7 -83 64 -32 75 -22 126 31 145 25 9 35 8 57
-8z m-3694 -33 c15 -16 12 -23 -44 -92 -33 -41 -63 -76 -68 -78 -4 -1 -13 4
-20 12 -10 12 -5 24 28 66 25 32 38 57 34 67 -4 9 1 21 12 29 25 19 39 18 58
-4z m1445 -2 c23 -22 26 -29 16 -54 -9 -24 -33 -19 -44 10 -14 37 -32 25 -54
-35 -14 -39 -16 -55 -7 -64 8 -8 14 -7 24 7 15 21 47 12 47 -13 0 -56 -112
-52 -126 5 -7 26 18 108 42 142 20 29 72 30 102 2z m2101 -29 c25 -25 54 -116
47 -147 -5 -18 -20 -31 -53 -45 -51 -22 -73 -19 -73 8 0 10 -12 51 -25 92 -14
41 -22 77 -19 80 7 7 73 28 92 30 6 1 20 -7 31 -18z m-1943 -22 c3 -5 2 -54
-2 -109 -7 -95 -8 -101 -28 -98 -14 2 -22 11 -24 29 -4 32 -41 47 -58 24 -12
-16 -54 -21 -54 -7 0 5 13 28 28 53 16 24 40 63 54 85 22 35 31 41 52 37 15
-3 29 -9 32 -14z m-1507 -16 c23 -20 30 -33 25 -46 -6 -16 -8 -16 -30 -2 -13
8 -28 15 -34 15 -16 0 -12 -27 5 -34 43 -16 -7 -116 -59 -116 -33 0 -68 34
-64 63 4 31 42 30 46 -1 3 -23 4 -23 23 -6 24 22 25 44 1 37 -10 -2 -24 2 -30
10 -10 11 -4 23 29 61 22 25 44 46 48 46 4 0 22 -12 40 -27z m1808 -55 c20
-16 3 -39 -26 -36 -36 4 -42 -27 -7 -36 15 -4 26 -10 26 -14 -1 -16 -17 -30
-39 -33 -18 -3 -27 -13 -33 -37 -7 -27 -13 -33 -31 -30 -12 2 -21 8 -21 13 1
6 5 33 9 60 3 28 11 69 16 91 l11 42 41 -5 c23 -3 47 -10 54 -15z m1352 -63
c41 -80 47 -119 19 -113 -7 2 -19 11 -28 20 -20 24 -56 13 -64 -18 -4 -13 -13
-24 -21 -24 -12 0 -15 18 -15 98 0 103 7 122 45 122 15 0 30 -20 64 -85z
m-144 -37 c-4 -57 -8 -104 -9 -105 0 -1 -13 -4 -28 -8 -21 -6 -27 -3 -33 16
-4 12 -23 56 -42 96 -19 41 -33 76 -31 78 1 2 11 5 21 7 14 2 26 -10 44 -44
14 -27 29 -48 34 -48 5 0 9 25 9 55 0 49 2 55 21 55 21 0 21 -3 14 -102z
m-1061 72 c16 -15 -1 -39 -24 -33 -13 4 -25 0 -30 -8 -11 -17 -3 -29 20 -29
25 0 35 -17 20 -35 -8 -10 -21 -13 -37 -9 -22 6 -24 4 -21 -17 2 -15 12 -25
28 -29 14 -3 25 -12 25 -20 0 -12 -12 -14 -54 -13 -30 2 -56 5 -58 7 -3 2 0
28 5 58 6 29 14 75 17 101 l6 48 47 -7 c26 -3 51 -10 56 -14z m160 -33 c14
-17 17 -34 14 -78 -6 -80 -27 -109 -81 -109 -68 0 -70 4 -62 111 4 52 10 98
12 102 9 16 98 -4 117 -26z m730 1 c27 -180 27 -178 -4 -178 -19 0 -25 15 -35
95 -3 28 -8 65 -11 83 -4 29 -2 32 20 32 21 0 26 -6 30 -32z m-598 12 c25 0
41 -30 22 -42 -7 -4 -23 -8 -36 -8 -30 0 -24 -23 9 -30 34 -8 33 -45 -1 -45
-18 0 -26 -6 -28 -23 -3 -19 1 -22 27 -22 25 0 31 -4 31 -20 0 -19 -5 -21 -57
-18 l-58 3 3 95 c4 101 13 125 46 116 12 -3 31 -6 42 -6z m514 -10 c0 -14 -7
-20 -21 -20 -20 0 -21 -3 -15 -62 4 -35 10 -73 13 -85 4 -19 1 -23 -20 -23
-23 0 -26 5 -36 63 -6 35 -11 71 -11 80 0 11 -8 17 -25 17 -18 0 -25 5 -25 19
0 25 12 29 83 30 51 1 57 -1 57 -19z m-338 -7 c11 -13 16 -43 16 -111 2 -91 1
-93 -21 -90 -13 2 -23 11 -25 23 -11 75 -29 89 -34 28 -2 -31 -7 -39 -25 -41
-23 -3 -23 -2 -23 102 l0 106 48 0 c34 0 54 -5 64 -17z m158 -3 c13 -26 50
-154 50 -172 0 -26 -40 -23 -47 2 -8 30 -51 27 -63 -5 -9 -23 -29 -33 -42 -20
-6 7 18 137 38 203 5 18 55 11 64 -8z m2053 -42 c29 -22 87 -112 87 -135 0
-22 -42 -63 -64 -63 -7 0 -21 6 -31 14 -17 12 -17 16 -5 31 7 9 22 14 32 12
20 -6 25 8 7 19 -6 3 -16 1 -22 -5 -19 -19 -44 -12 -71 20 -33 39 -33 72 0 98
31 24 44 26 67 9z m-4368 -27 c6 -10 -76 -151 -98 -169 -15 -12 -87 31 -87 53
0 22 48 95 67 102 8 3 25 1 35 -6 17 -11 22 -9 35 8 15 22 38 27 48 12z m4265
-85 c8 -16 25 -39 38 -52 39 -40 24 -98 -30 -117 -24 -8 -65 27 -73 63 -4 17
-13 30 -20 30 -15 0 -33 47 -28 71 5 21 41 39 73 36 15 -1 30 -12 40 -31z
m-4208 -33 c24 -22 23 -40 -8 -85 -32 -46 -74 -52 -99 -14 -17 25 -13 45 17
89 22 31 61 36 90 10z m4078 -58 c6 -19 16 -35 21 -35 11 0 39 -54 39 -75 0
-14 -54 -55 -73 -55 -13 0 -57 52 -57 68 0 8 -11 28 -26 44 -33 40 -28 69 15
90 43 21 65 11 81 -37z m-3800 -30 c8 -9 11 -30 7 -55 -6 -45 4 -45 23 0 13
31 37 40 46 16 4 -10 -64 -165 -81 -184 -1 -1 -14 3 -29 9 -25 12 -27 16 -21
63 l5 51 -20 -37 c-20 -37 -42 -48 -55 -28 -3 5 13 48 37 95 43 86 62 101 88
70z m3663 -32 c14 -27 36 -67 49 -91 20 -37 21 -44 8 -52 -23 -15 -24 -14 -60
50 -21 38 -39 59 -49 58 -22 -4 -24 59 -2 72 25 15 27 13 54 -37z m-3503 -113
c24 -24 24 -35 2 -79 -21 -43 -42 -56 -75 -47 -36 9 -49 35 -37 76 19 67 70
90 110 50z m3129 -92 c14 -36 30 -70 34 -74 18 -18 5 -42 -34 -60 l-41 -18
-19 23 c-10 13 -24 41 -31 63 -11 38 -10 42 11 59 16 13 21 25 16 39 -3 11 -3
25 0 30 15 24 39 1 64 -62z m-3055 56 c10 -4 16 -18 16 -41 l0 -36 20 26 c12
15 27 24 35 20 21 -7 19 -15 -16 -59 -17 -22 -34 -45 -39 -53 -5 -9 -16 -12
-33 -7 -22 5 -26 11 -22 34 2 15 7 48 10 75 4 26 8 47 10 47 2 0 10 -3 19 -6z
m3191 -24 c9 -16 12 -30 8 -30 -4 0 -2 -5 5 -12 22 -22 14 -58 -15 -69 -40
-15 -55 -8 -80 36 -28 49 -28 60 -3 85 30 30 66 26 85 -10z m-3020 -42 c37
-17 41 -48 12 -100 -20 -36 -29 -43 -52 -41 -48 4 -61 25 -46 75 13 42 36 78
52 78 4 0 20 -5 34 -12z m157 -59 c10 -5 26 -9 37 -9 34 0 46 -25 32 -72 -24
-78 -29 -88 -47 -81 -16 6 -16 26 2 97 11 44 -10 24 -26 -25 -8 -22 -20 -43
-28 -46 -21 -9 -34 11 -24 38 18 47 22 79 12 79 -5 0 -16 -21 -22 -46 -13 -48
-31 -65 -51 -45 -11 11 -7 31 24 112 10 25 13 26 42 17 18 -6 40 -15 49 -19z
m168 -1 c-3 -39 -1 -46 19 -53 29 -9 32 -29 14 -84 -18 -58 -30 -65 -84 -48
-43 13 -46 22 -25 82 8 22 20 59 27 83 9 30 17 42 31 42 14 0 19 -6 18 -22z
m128 -84 c27 -8 28 -25 2 -42 -12 -7 -22 -28 -26 -52 -6 -34 -10 -40 -31 -40
-18 0 -23 4 -19 18 2 9 7 33 11 52 14 75 15 76 63 64z m140 -36 c7 -7 12 -32
12 -57 0 -69 -39 -98 -91 -70 -17 8 -20 19 -18 57 3 66 14 82 52 82 18 0 38
-5 45 -12z m892 -173 c0 -8 7 -15 15 -15 8 0 15 -4 15 -10 0 -5 -5 -9 -12 -7
-7 1 -12 -9 -12 -24 1 -25 -2 -27 -59 -33 -108 -11 -179 -7 -199 11 -20 18
-23 45 -8 74 10 17 22 19 135 19 104 0 125 -2 125 -15z"/>
<path d="M3268 5659 c-302 -65 -521 -183 -734 -394 -384 -383 -513 -917 -347
-1440 31 -99 119 -275 186 -375 70 -104 262 -292 368 -362 149 -98 341 -184
452 -204 17 -2 34 -7 37 -9 4 -3 56 -12 116 -20 448 -63 883 84 1204 405 113
113 176 196 245 324 46 85 102 217 117 276 45 176 50 217 51 395 0 192 -13
284 -67 447 -161 494 -579 856 -1106 959 -131 26 -398 25 -522 -2z m286 -64
c10 -16 26 -25 41 -25 29 0 31 -8 10 -36 -8 -10 -15 -33 -15 -51 0 -31 -1 -32
-29 -22 -21 7 -36 7 -50 0 -28 -16 -31 -14 -31 15 0 14 -9 38 -21 52 l-21 27
31 12 c17 7 36 22 43 33 17 26 22 25 42 -5z m339 -44 c6 -16 22 -35 36 -41
l26 -12 -27 -22 c-16 -12 -28 -31 -28 -42 0 -31 -11 -36 -38 -18 -15 10 -35
14 -52 10 -27 -5 -28 -4 -23 33 3 21 0 48 -6 59 -10 19 -8 22 24 28 19 3 39
12 46 20 18 21 30 17 42 -15z m-693 4 c7 -8 28 -15 47 -15 30 0 34 -3 27 -17
-8 -19 -8 -43 -2 -78 2 -16 -3 -20 -29 -20 -17 -1 -41 -9 -52 -19 -21 -19 -21
-19 -27 13 -4 18 -17 39 -30 48 l-24 15 30 28 c17 15 30 35 30 44 0 20 14 21
30 1z m-277 -129 c35 0 37 -2 37 -31 0 -17 7 -41 16 -53 15 -21 14 -22 -16
-28 -17 -4 -37 -16 -45 -27 -14 -20 -15 -20 -44 11 -16 18 -34 32 -40 32 -16
0 -13 26 4 40 8 7 15 26 15 42 0 25 3 29 18 22 9 -4 34 -8 55 -8z m1297 -16
c0 -19 7 -33 20 -40 28 -15 25 -27 -10 -45 -17 -9 -33 -27 -36 -41 l-7 -26
-28 32 c-16 17 -34 28 -39 25 -6 -4 -18 -4 -26 -1 -13 5 -13 9 2 30 11 17 14
35 9 56 l-7 31 40 -7 c25 -4 42 -2 46 5 14 23 36 11 36 -19z m-524 -31 c32 -6
68 -12 79 -14 11 -1 53 -12 94 -24 353 -107 635 -382 750 -731 39 -119 51
-199 51 -350 0 -239 -53 -421 -178 -615 -56 -87 -205 -241 -292 -303 -75 -52
-264 -144 -330 -160 -164 -39 -185 -42 -327 -42 -114 0 -168 5 -233 21 -47 11
-96 23 -110 26 -14 3 -83 34 -155 68 -302 148 -514 409 -606 745 -19 74 -22
110 -23 270 0 189 4 221 50 359 89 267 311 519 565 642 95 46 208 85 274 95
22 3 56 9 75 14 52 12 248 12 316 -1z m763 -146 c28 6 29 4 33 -36 3 -23 8
-50 12 -59 7 -15 3 -18 -23 -18 -20 0 -35 -7 -43 -20 -17 -27 -35 -25 -42 3
-3 13 -17 29 -31 35 -30 14 -31 23 -5 47 11 10 20 31 20 47 0 28 0 28 25 12
16 -11 36 -14 54 -11z m-1749 -73 l22 -17 -30 -22 c-17 -12 -34 -31 -37 -42
-7 -21 -7 -21 -28 -1 -12 11 -37 23 -54 27 -28 6 -31 9 -23 25 6 10 10 32 10
49 0 28 3 31 33 31 18 0 42 6 53 14 18 13 20 12 26 -17 3 -17 16 -38 28 -47z
m1978 -200 c30 0 31 -1 20 -30 -5 -17 -8 -42 -5 -55 4 -23 1 -25 -33 -25 -21
0 -43 -7 -50 -15 -18 -21 -30 -19 -30 7 0 12 -11 34 -25 48 l-25 26 24 14 c14
7 30 26 36 43 l10 30 23 -21 c14 -13 36 -22 55 -22z m-2187 -60 l21 -12 -21
-22 c-12 -12 -21 -31 -21 -42 0 -30 -10 -35 -34 -19 -11 8 -34 15 -51 15 -29
0 -31 2 -31 38 0 20 -2 43 -4 51 -3 10 6 17 29 22 18 4 41 14 50 23 15 16 17
15 28 -13 7 -17 22 -35 34 -41z m2291 -230 c10 -18 25 -30 38 -30 23 0 27 -22
5 -40 -8 -7 -15 -28 -15 -46 l0 -35 -29 16 c-22 11 -37 12 -56 5 -37 -14 -38
-14 -32 24 4 24 1 39 -9 47 -21 17 -17 27 15 34 15 3 34 17 41 30 17 32 21 31
42 -5z m-2459 -33 c8 -12 25 -23 37 -24 32 -3 36 -10 17 -31 -10 -10 -17 -33
-17 -50 0 -29 -1 -30 -34 -25 -18 3 -43 0 -55 -6 -19 -11 -21 -9 -21 21 0 18
-9 41 -21 54 l-20 22 30 10 c16 6 34 20 41 31 14 27 24 26 43 -2z m2517 -296
c0 -11 15 -32 33 -47 22 -19 28 -29 18 -32 -24 -8 -51 -41 -51 -62 0 -26 -12
-25 -35 0 -14 16 -26 19 -47 15 -28 -7 -28 -6 -22 33 3 23 1 48 -5 61 -11 20
-9 21 27 21 23 0 45 6 52 15 17 21 30 19 30 -4z m-2577 -19 c12 -13 26 -17 48
-14 29 4 31 3 23 -19 -9 -29 -9 -48 1 -71 6 -15 2 -18 -19 -18 -15 0 -38 -8
-52 -17 -22 -14 -27 -14 -35 -2 -5 8 -9 19 -9 26 0 7 -9 17 -20 23 -25 13 -26
37 -1 45 10 3 21 19 25 35 6 35 16 37 39 12z m2557 -318 c0 -14 9 -38 20 -54
l20 -28 -30 -6 c-19 -3 -35 -15 -42 -31 -14 -31 -25 -32 -39 -1 -7 15 -23 26
-41 30 -30 6 -30 6 -13 32 9 15 15 37 12 51 -4 23 -2 24 32 19 20 -4 43 -2 51
4 24 15 30 12 30 -16z m-2482 -17 l43 2 -6 -33 c-5 -23 -2 -36 9 -45 19 -16
12 -31 -14 -31 -11 0 -27 -11 -36 -25 -21 -32 -31 -32 -46 0 -6 14 -22 28 -35
31 -27 7 -29 17 -8 34 8 7 15 28 15 47 0 30 3 34 18 27 9 -5 36 -7 60 -7z
m2287 -272 c12 -10 30 -13 52 -9 32 6 32 6 26 -29 -3 -19 0 -43 6 -55 11 -21
-1 -32 -39 -32 -9 0 -23 -7 -30 -15 -18 -22 -29 -19 -36 10 -3 14 -11 25 -18
25 -6 0 -17 4 -25 9 -12 7 -10 14 8 36 11 15 21 38 21 51 0 28 7 29 35 9z
m-2135 -37 c0 -12 10 -32 22 -45 l21 -23 -24 -23 c-13 -13 -29 -32 -35 -42
-10 -19 -11 -18 -39 3 -15 12 -38 22 -52 22 -21 0 -22 2 -12 21 6 12 9 37 6
57 -6 34 -6 34 28 29 25 -4 38 -1 50 14 21 22 35 16 35 -13z m1955 -228 c10
-11 31 -20 48 -20 24 0 28 -3 21 -17 -4 -10 -8 -34 -7 -55 1 -34 -1 -36 -36
-41 -20 -3 -46 -8 -58 -12 -20 -6 -23 -4 -23 22 0 17 -8 34 -20 43 -26 19 -25
29 5 40 14 5 27 20 31 35 7 30 15 31 39 5z m-1763 -30 c6 -19 19 -32 34 -36
29 -7 30 -15 4 -39 -11 -10 -20 -28 -20 -40 0 -31 -9 -36 -36 -19 -15 10 -33
14 -53 9 -29 -6 -29 -6 -24 33 3 24 1 42 -6 46 -20 13 -11 26 18 26 20 0 34 8
45 25 21 32 25 31 38 -5z m1557 -215 c25 -8 27 -18 6 -35 -8 -7 -15 -21 -15
-30 0 -38 -11 -50 -32 -39 -11 6 -36 8 -55 4 -35 -6 -35 -6 -29 20 5 18 1 36
-9 51 -18 28 -12 44 17 44 11 0 29 12 40 26 l20 25 19 -29 c9 -17 27 -33 38
-37z m-1322 36 c7 -11 26 -22 43 -26 34 -7 36 -13 16 -40 -9 -13 -11 -28 -6
-47 8 -27 7 -27 -28 -26 -20 0 -47 -3 -59 -7 -19 -6 -23 -3 -29 30 -3 20 -13
39 -20 42 -22 8 -17 22 10 29 14 3 29 18 36 35 15 34 21 36 37 10z m998 -140
c4 -17 16 -33 32 -40 l27 -12 -32 -25 c-18 -14 -32 -34 -32 -45 0 -23 -10 -24
-36 -4 -10 8 -30 15 -44 15 -24 0 -25 3 -25 59 0 58 0 59 25 55 14 -3 34 1 45
10 28 21 33 20 40 -13z m-698 4 c14 -10 32 -13 48 -9 24 6 26 4 24 -32 0 -22
1 -48 3 -59 2 -14 -3 -20 -18 -20 -12 0 -31 -8 -41 -17 -27 -24 -32 -23 -45
12 -6 19 -19 32 -34 36 -30 8 -30 11 1 36 14 11 25 30 25 44 0 28 7 30 37 9z
m385 -63 c-2 -18 2 -33 12 -41 23 -20 20 -31 -14 -42 -16 -6 -32 -19 -35 -30
-9 -27 -30 -24 -43 6 -8 17 -20 25 -37 25 -28 0 -33 21 -10 40 8 7 15 26 15
42 0 28 2 30 33 25 17 -3 41 -2 52 2 27 11 32 7 27 -27z"/>
<path d="M3390 5349 c-225 -36 -368 -98 -545 -235 -146 -113 -275 -294 -338
-474 -49 -142 -59 -204 -59 -375 0 -178 10 -238 68 -393 47 -125 89 -195 197
-329 111 -139 306 -265 507 -329 139 -44 392 -58 532 -29 456 96 793 439 873
890 8 44 15 125 15 180 1 500 -327 928 -815 1065 -126 35 -317 48 -435 29z
m20 -284 c17 -18 34 -25 62 -25 42 0 45 -5 22 -38 -11 -16 -14 -34 -9 -62 l7
-40 -44 0 c-23 0 -52 -7 -62 -15 -29 -22 -33 -19 -40 23 -4 27 -13 42 -31 52
-33 18 -32 35 5 50 19 8 33 23 40 46 14 41 19 42 50 9z m739 -284 c18 -14 35
-17 67 -13 l43 5 -9 -33 c-5 -18 -12 -35 -14 -38 -3 -2 1 -14 9 -26 27 -37 19
-56 -22 -56 -26 0 -45 -8 -64 -26 l-27 -26 -12 37 c-8 24 -24 44 -47 58 l-35
20 31 24 c17 14 31 33 31 43 0 23 10 50 19 50 3 0 17 -9 30 -19z m-1282 -241
c16 -12 41 -20 65 -20 36 0 39 -2 32 -22 -5 -13 -8 -34 -8 -48 0 -14 3 -35 8
-47 7 -21 4 -23 -32 -23 -28 0 -45 -7 -62 -25 -27 -28 -35 -26 -44 12 -4 16
-21 40 -39 54 l-31 27 32 30 c18 17 32 39 32 49 0 37 12 40 47 13z m869 -81
c3 -6 16 -8 28 -5 21 5 23 2 23 -39 0 -38 -3 -45 -20 -45 -11 0 -29 -7 -39
-17 -16 -15 -18 -15 -18 0 0 9 -10 26 -22 37 -21 20 -22 22 -5 31 9 6 17 19
17 29 0 21 24 27 36 9z m7 -895 c22 -22 32 -25 60 -20 43 8 48 2 32 -36 -10
-26 -10 -37 1 -64 8 -18 14 -36 14 -39 0 -3 -20 -5 -44 -5 -25 0 -48 -4 -51
-10 -3 -5 -15 -14 -25 -20 -17 -9 -21 -5 -31 28 -7 25 -21 44 -42 56 l-31 17
31 20 c23 15 33 30 38 59 4 22 10 40 15 40 4 0 19 -12 33 -26z"/>
<path d="M4205 1869 c-27 -4 -115 -12 -193 -18 -79 -6 -148 -13 -153 -17 -12
-7 -12 -161 0 -169 9 -5 159 -39 226 -51 17 -3 46 -9 65 -14 19 -4 58 -11 86
-15 l52 -7 11 52 c6 28 11 93 11 144 0 76 -3 95 -16 100 -17 7 -18 7 -89 -5z"/>
<path d="M2856 1843 c-16 -40 -1 -251 18 -270 3 -4 50 3 103 15 54 12 107 24
118 27 117 25 165 36 190 43 l30 8 0 84 0 84 -35 7 c-19 4 -121 9 -227 12
-163 4 -193 3 -197 -10z"/>
<path d="M1541 1806 c-9 -10 -9 -16 -1 -21 17 -10 37 12 24 25 -8 8 -15 6 -23
-4z"/>
<path d="M1790 1621 c-7 -13 -7 -22 0 -26 13 -8 30 3 30 20 0 23 -18 27 -30 6z"/>
<path d="M5292 1578 c5 -15 28 -23 28 -10 0 5 -7 13 -16 16 -10 4 -14 1 -12
-6z"/>
<path d="M1953 1578 c-5 -7 -24 -41 -42 -75 -30 -60 -30 -63 -11 -63 11 0 24
8 27 18 4 9 19 38 34 64 22 37 25 49 15 57 -10 8 -16 8 -23 -1z"/>
<path d="M5120 1520 c0 -13 5 -20 13 -17 6 2 12 10 12 17 0 7 -6 15 -12 18 -8
2 -13 -5 -13 -18z"/>
<path d="M2080 1450 c0 -13 5 -18 15 -14 8 4 15 12 15 20 0 8 -7 14 -15 14 -8
0 -15 -9 -15 -20z"/>
<path d="M2040 1381 c-7 -14 -7 -22 1 -27 14 -8 43 21 35 35 -11 17 -24 13
-36 -8z"/>
<path d="M4967 1445 c6 -17 25 -15 31 3 2 7 -5 12 -17 12 -14 0 -19 -5 -14
-15z"/>
<path d="M5004 1375 c3 -9 6 -19 6 -21 0 -2 7 -4 16 -4 22 0 13 34 -10 38 -14
3 -17 0 -12 -13z"/>
<path d="M4693 1312 c9 -47 35 -102 46 -102 29 0 -7 118 -38 128 -11 4 -13 -2
-8 -26z"/>
<path d="M4537 1273 c-7 -13 27 -106 41 -111 17 -5 16 40 -2 83 -14 33 -30 44
-39 28z"/>
<path d="M2587 1205 c-4 -8 -2 -17 3 -20 6 -4 10 3 10 14 0 25 -6 27 -13 6z"/>
<path d="M4240 1141 c0 -12 5 -21 10 -21 6 0 10 6 10 14 0 8 -4 18 -10 21 -5
3 -10 -3 -10 -14z"/>
<path d="M3197 1133 c-3 -5 -8 -32 -12 -61 -6 -49 -5 -54 11 -50 16 3 20 14
22 61 3 50 -7 73 -21 50z"/>
<path d="M3510 1100 c0 -11 5 -20 10 -20 6 0 10 9 10 20 0 11 -4 20 -10 20 -5
0 -10 -9 -10 -20z"/>
<path d="M3690 1066 c0 -9 5 -16 10 -16 6 0 10 4 10 9 0 6 -4 13 -10 16 -5 3
-10 -1 -10 -9z"/>
<path d="M5740 1064 c1 -16 28 -45 34 -36 3 5 -3 17 -14 27 -11 10 -20 14 -20
9z"/>
<path d="M1294 995 c-22 -34 -8 -47 16 -15 22 28 25 40 10 40 -5 0 -17 -11
-26 -25z"/>
<path d="M5620 969 c7 -11 14 -18 17 -15 8 8 -5 36 -17 36 -7 0 -7 -6 0 -21z"/>
<path d="M5670 890 c6 -11 15 -18 21 -14 6 4 6 11 -2 20 -17 21 -31 17 -19 -6z"/>
<path d="M1395 889 c-4 -6 -5 -13 -2 -16 7 -7 27 6 27 18 0 12 -17 12 -25 -2z"/>
<path d="M5482 898 c2 -6 10 -14 16 -16 7 -2 10 2 6 12 -7 18 -28 22 -22 4z"/>
<path d="M5532 821 c2 -14 9 -26 16 -29 17 -5 15 10 -3 34 -15 18 -15 18 -13
-5z"/>
<path d="M1852 685 c-7 -14 -12 -31 -12 -38 1 -17 40 32 40 49 0 23 -16 16
-28 -11z"/>
<path d="M4987 603 c-8 -7 21 -63 33 -63 5 0 5 13 -2 30 -11 32 -21 43 -31 33z"/>
<path d="M5146 611 c-4 -7 -5 -15 -2 -18 9 -9 19 4 14 18 -4 11 -6 11 -12 0z"/>
<path d="M2110 534 c0 -8 5 -12 10 -9 6 3 10 10 10 16 0 5 -4 9 -10 9 -5 0
-10 -7 -10 -16z"/>
<path d="M2462 478 c-6 -6 -12 -26 -11 -42 l1 -31 14 34 c17 38 15 58 -4 39z"/>
<path d="M2696 408 c-9 -33 -7 -58 3 -58 5 0 12 14 16 31 8 37 -9 62 -19 27z"/>
</g>
</svg>
